<mxfile host="app.diagrams.net" modified="2023-12-01T06:22:48.363Z" agent="Mozilla/5.0 (Windows NT 10.0; Win64; x64) AppleWebKit/537.36 (KHTML, like Gecko) Chrome/119.0.0.0 Safari/537.36" etag="o0wN3Z-X5OqVNwlPy2Zq" version="22.1.5" type="github">
  <diagram name="Page-1" id="LZiEn5NmYWzQhd7Sv6vc">
    <mxGraphModel dx="1034" dy="724" grid="1" gridSize="10" guides="1" tooltips="1" connect="1" arrows="1" fold="1" page="1" pageScale="1" pageWidth="850" pageHeight="1100" math="0" shadow="0">
      <root>
        <mxCell id="0" />
        <mxCell id="1" parent="0" />
        <mxCell id="zlnUHEIgUiWyySPxx8ih-1" value="customer" style="shape=umlActor;verticalLabelPosition=bottom;verticalAlign=top;html=1;outlineConnect=0;" vertex="1" parent="1">
          <mxGeometry x="120" y="50" width="40" height="70" as="geometry" />
        </mxCell>
        <mxCell id="zlnUHEIgUiWyySPxx8ih-2" value="delivery person" style="shape=umlActor;verticalLabelPosition=bottom;verticalAlign=top;html=1;outlineConnect=0;" vertex="1" parent="1">
          <mxGeometry x="100" y="440" width="40" height="80" as="geometry" />
        </mxCell>
        <mxCell id="zlnUHEIgUiWyySPxx8ih-6" style="edgeStyle=orthogonalEdgeStyle;rounded=0;orthogonalLoop=1;jettySize=auto;html=1;exitX=0.5;exitY=0.5;exitDx=0;exitDy=0;exitPerimeter=0;entryX=0.5;entryY=0.5;entryDx=0;entryDy=0;entryPerimeter=0;" edge="1" parent="1" source="zlnUHEIgUiWyySPxx8ih-3" target="zlnUHEIgUiWyySPxx8ih-3">
          <mxGeometry relative="1" as="geometry">
            <mxPoint x="720" y="95" as="targetPoint" />
          </mxGeometry>
        </mxCell>
        <mxCell id="zlnUHEIgUiWyySPxx8ih-3" value="employee" style="shape=umlActor;verticalLabelPosition=bottom;verticalAlign=top;html=1;outlineConnect=0;" vertex="1" parent="1">
          <mxGeometry x="740" y="60" width="40" height="70" as="geometry" />
        </mxCell>
        <mxCell id="zlnUHEIgUiWyySPxx8ih-4" value="cook" style="shape=umlActor;verticalLabelPosition=bottom;verticalAlign=top;html=1;outlineConnect=0;" vertex="1" parent="1">
          <mxGeometry x="737.5" y="420" width="45" height="70" as="geometry" />
        </mxCell>
        <mxCell id="zlnUHEIgUiWyySPxx8ih-8" value="" style="rounded=0;whiteSpace=wrap;html=1;" vertex="1" parent="1">
          <mxGeometry x="250" y="20" width="420" height="710" as="geometry" />
        </mxCell>
        <mxCell id="zlnUHEIgUiWyySPxx8ih-9" value="&lt;font style=&quot;font-size: 18px;&quot;&gt;Registering customer information&lt;/font&gt;" style="ellipse;whiteSpace=wrap;html=1;" vertex="1" parent="1">
          <mxGeometry x="300" y="40" width="340" height="80" as="geometry" />
        </mxCell>
        <mxCell id="zlnUHEIgUiWyySPxx8ih-10" value="&lt;font style=&quot;font-size: 18px;&quot;&gt;Placing order&lt;/font&gt;" style="ellipse;whiteSpace=wrap;html=1;" vertex="1" parent="1">
          <mxGeometry x="330" y="140" width="280" height="60" as="geometry" />
        </mxCell>
        <mxCell id="zlnUHEIgUiWyySPxx8ih-11" value="&lt;font style=&quot;font-size: 18px;&quot;&gt;Validating order / ingredients&lt;/font&gt;" style="ellipse;whiteSpace=wrap;html=1;" vertex="1" parent="1">
          <mxGeometry x="300" y="220" width="340" height="80" as="geometry" />
        </mxCell>
        <mxCell id="zlnUHEIgUiWyySPxx8ih-13" value="&lt;font style=&quot;font-size: 18px;&quot;&gt;Updating ingredients&lt;/font&gt;" style="ellipse;whiteSpace=wrap;html=1;" vertex="1" parent="1">
          <mxGeometry x="295" y="420" width="340" height="80" as="geometry" />
        </mxCell>
        <mxCell id="zlnUHEIgUiWyySPxx8ih-14" value="&lt;font style=&quot;font-size: 18px;&quot;&gt;updating cooking status&lt;/font&gt;" style="ellipse;whiteSpace=wrap;html=1;" vertex="1" parent="1">
          <mxGeometry x="290" y="520" width="340" height="80" as="geometry" />
        </mxCell>
        <mxCell id="zlnUHEIgUiWyySPxx8ih-16" value="&lt;font style=&quot;font-size: 18px;&quot;&gt;Updating delivery&lt;/font&gt;" style="ellipse;whiteSpace=wrap;html=1;" vertex="1" parent="1">
          <mxGeometry x="320" y="630" width="300" height="80" as="geometry" />
        </mxCell>
        <mxCell id="zlnUHEIgUiWyySPxx8ih-23" value="" style="endArrow=classic;html=1;rounded=0;exitX=0;exitY=0.3333333333333333;exitDx=0;exitDy=0;exitPerimeter=0;" edge="1" parent="1" source="zlnUHEIgUiWyySPxx8ih-3" target="zlnUHEIgUiWyySPxx8ih-10">
          <mxGeometry width="50" height="50" relative="1" as="geometry">
            <mxPoint x="540" y="410" as="sourcePoint" />
            <mxPoint x="590" y="360" as="targetPoint" />
          </mxGeometry>
        </mxCell>
        <mxCell id="zlnUHEIgUiWyySPxx8ih-27" value="" style="endArrow=classic;html=1;rounded=0;exitX=0;exitY=0.3333333333333333;exitDx=0;exitDy=0;exitPerimeter=0;" edge="1" parent="1" source="zlnUHEIgUiWyySPxx8ih-4" target="zlnUHEIgUiWyySPxx8ih-14">
          <mxGeometry width="50" height="50" relative="1" as="geometry">
            <mxPoint x="660" y="520" as="sourcePoint" />
            <mxPoint x="710" y="470" as="targetPoint" />
          </mxGeometry>
        </mxCell>
        <mxCell id="zlnUHEIgUiWyySPxx8ih-28" value="" style="endArrow=classic;html=1;rounded=0;" edge="1" parent="1" source="zlnUHEIgUiWyySPxx8ih-12">
          <mxGeometry width="50" height="50" relative="1" as="geometry">
            <mxPoint x="540" y="410" as="sourcePoint" />
            <mxPoint x="590" y="360" as="targetPoint" />
          </mxGeometry>
        </mxCell>
        <mxCell id="zlnUHEIgUiWyySPxx8ih-12" value="&lt;font style=&quot;font-size: 18px;&quot;&gt;Forwarding order&lt;/font&gt;" style="ellipse;whiteSpace=wrap;html=1;" vertex="1" parent="1">
          <mxGeometry x="295" y="310" width="340" height="80" as="geometry" />
        </mxCell>
        <mxCell id="zlnUHEIgUiWyySPxx8ih-31" value="" style="endArrow=classic;html=1;rounded=0;exitX=1;exitY=0.3333333333333333;exitDx=0;exitDy=0;exitPerimeter=0;entryX=0;entryY=0.5;entryDx=0;entryDy=0;" edge="1" parent="1" source="zlnUHEIgUiWyySPxx8ih-1" target="zlnUHEIgUiWyySPxx8ih-9">
          <mxGeometry width="50" height="50" relative="1" as="geometry">
            <mxPoint x="540" y="410" as="sourcePoint" />
            <mxPoint x="590" y="360" as="targetPoint" />
          </mxGeometry>
        </mxCell>
        <mxCell id="zlnUHEIgUiWyySPxx8ih-32" value="" style="endArrow=classic;html=1;rounded=0;entryX=0.797;entryY=0.925;entryDx=0;entryDy=0;entryPerimeter=0;exitX=0;exitY=0.3333333333333333;exitDx=0;exitDy=0;exitPerimeter=0;" edge="1" parent="1" source="zlnUHEIgUiWyySPxx8ih-3">
          <mxGeometry width="50" height="50" relative="1" as="geometry">
            <mxPoint x="784.02" y="30" as="sourcePoint" />
            <mxPoint x="610" y="334" as="targetPoint" />
            <Array as="points">
              <mxPoint x="684.02" y="250" />
            </Array>
          </mxGeometry>
        </mxCell>
        <mxCell id="zlnUHEIgUiWyySPxx8ih-33" value="" style="endArrow=classic;html=1;rounded=0;exitX=0.525;exitY=0.338;exitDx=0;exitDy=0;exitPerimeter=0;entryX=0;entryY=0.5;entryDx=0;entryDy=0;" edge="1" parent="1" source="zlnUHEIgUiWyySPxx8ih-2" target="zlnUHEIgUiWyySPxx8ih-16">
          <mxGeometry width="50" height="50" relative="1" as="geometry">
            <mxPoint x="540" y="410" as="sourcePoint" />
            <mxPoint x="590" y="360" as="targetPoint" />
            <Array as="points" />
          </mxGeometry>
        </mxCell>
        <mxCell id="zlnUHEIgUiWyySPxx8ih-34" value="" style="endArrow=classic;html=1;rounded=0;entryX=0;entryY=0.5;entryDx=0;entryDy=0;exitX=0.825;exitY=0.214;exitDx=0;exitDy=0;exitPerimeter=0;" edge="1" parent="1" source="zlnUHEIgUiWyySPxx8ih-1" target="zlnUHEIgUiWyySPxx8ih-10">
          <mxGeometry width="50" height="50" relative="1" as="geometry">
            <mxPoint x="160" y="80" as="sourcePoint" />
            <mxPoint x="470" y="350" as="targetPoint" />
          </mxGeometry>
        </mxCell>
        <mxCell id="zlnUHEIgUiWyySPxx8ih-35" value="" style="endArrow=classic;html=1;rounded=0;entryX=0.109;entryY=0.8;entryDx=0;entryDy=0;entryPerimeter=0;exitX=1;exitY=0.3333333333333333;exitDx=0;exitDy=0;exitPerimeter=0;" edge="1" parent="1" source="zlnUHEIgUiWyySPxx8ih-2" target="zlnUHEIgUiWyySPxx8ih-9">
          <mxGeometry width="50" height="50" relative="1" as="geometry">
            <mxPoint x="420" y="400" as="sourcePoint" />
            <mxPoint x="470" y="350" as="targetPoint" />
          </mxGeometry>
        </mxCell>
        <mxCell id="zlnUHEIgUiWyySPxx8ih-36" value="" style="endArrow=classic;html=1;rounded=0;exitX=0.525;exitY=0.413;exitDx=0;exitDy=0;exitPerimeter=0;entryX=0.05;entryY=0.7;entryDx=0;entryDy=0;entryPerimeter=0;" edge="1" parent="1" source="zlnUHEIgUiWyySPxx8ih-2" target="zlnUHEIgUiWyySPxx8ih-10">
          <mxGeometry width="50" height="50" relative="1" as="geometry">
            <mxPoint x="420" y="400" as="sourcePoint" />
            <mxPoint x="470" y="350" as="targetPoint" />
          </mxGeometry>
        </mxCell>
      </root>
    </mxGraphModel>
  </diagram>
</mxfile>
